# xmcd
#
# Track frame offsets:
#	150
#	25855
#	51964
#	85125
#	110732
#	132250
#	159147
#	181747
#	205657
#	231515
#	253257
#
# Disc length: 3761 seconds
#
# Revision: 1
# Processed by: cddbd v1.4b42PL1 Copyright (c) Steve Scherf et al.
# Submitted via: audiograbber 1.80
#
DISCID=8f0eaf0b
DTITLE=Joani Bye and the Homewreckers - OFF THE FLOOR
DYEAR=1900
DGENRE=
TTITLE0=Breaking Up Somebody's Home
TTITLE1=People Get Ready
TTITLE2=The Pusher
TTITLE3=I Can't Stand The Rain
TTITLE4=Down To The Bone
TTITLE5=Piece Of My Heart
TTITLE6=Son Of A Preacher Man
TTITLE7=You Got The Love
TTITLE8=Come Together
TTITLE9=Love The One You're With
TTITLE10=Muddy Water Blues
EXTD=
EXTT0=
EXTT1=
EXTT2=
EXTT3=
EXTT4=
EXTT5=
EXTT6=
EXTT7=
EXTT8=
EXTT9=
EXTT10=
PLAYORDER=
